<svg width="107" height="115" viewBox="0 0 107 115" fill="none" xmlns="http://www.w3.org/2000/svg">
<g clip-path="url(#clip0_743_1582)">
<path d="M65.5008 19.5661H41.5192C40.9727 19.5667 40.4487 19.7844 40.0623 20.1714C39.6759 20.5584 39.4585 21.0831 39.4578 21.6304V75.0064L39.183 75.0904L33.2999 76.8946C33.0211 76.9797 32.7199 76.9506 32.4625 76.8136C32.2052 76.6766 32.0126 76.4429 31.9271 76.1638L14.4276 18.9206C14.3424 18.6414 14.3715 18.3397 14.5083 18.0819C14.6451 17.8241 14.8786 17.6313 15.1573 17.5458L24.2231 14.7659L50.5053 6.70956L59.571 3.92962C59.709 3.8871 59.854 3.87224 59.9977 3.8859C60.1414 3.89955 60.281 3.94145 60.4085 4.0092C60.536 4.07695 60.6489 4.16921 60.7408 4.28072C60.8327 4.39222 60.9017 4.52077 60.9439 4.65901L65.417 19.2908L65.5008 19.5661Z" fill="#F2F2F2"/>
<path d="M70.7341 19.291L65.343 1.65632C65.2533 1.3625 65.1067 1.08925 64.9115 0.852194C64.7163 0.615139 64.4764 0.418925 64.2055 0.274762C63.9345 0.130599 63.6379 0.0413114 63.3325 0.0120053C63.027 -0.0173007 62.7189 0.0139488 62.4255 0.103965L49.6796 4.01101L23.3989 12.0687L10.6529 15.9771C10.0608 16.1592 9.56499 16.5691 9.27436 17.1169C8.98373 17.6646 8.922 18.3055 9.10271 18.8988L27.5284 79.1669C27.6752 79.6458 27.9714 80.065 28.3736 80.363C28.7757 80.6609 29.2627 80.822 29.7629 80.8224C29.9944 80.8226 30.2247 80.7878 30.4459 80.7192L39.1832 78.0411L39.4581 77.9558V77.6682L39.1832 77.7521L30.3648 80.4564C29.8422 80.6159 29.2777 80.5614 28.7951 80.3047C28.3126 80.048 27.9514 79.6101 27.7909 79.0871L9.36662 18.8176C9.28707 18.5584 9.25934 18.2861 9.28503 18.0162C9.31072 17.7463 9.38931 17.4841 9.51632 17.2447C9.64333 17.0053 9.81626 16.7933 10.0252 16.6209C10.2341 16.4485 10.475 16.319 10.7339 16.24L23.4799 12.3315L49.7607 4.27524L62.5066 0.366823C62.7031 0.306792 62.9073 0.276184 63.1126 0.275993C63.5534 0.276984 63.9822 0.419277 64.3363 0.682031C64.6905 0.944785 64.9513 1.31419 65.0806 1.73614L70.4469 19.291L70.5321 19.5662H70.818L70.7341 19.291Z" fill="#3F3D56"/>
<path d="M25.8592 17.5908C25.5944 17.5906 25.3365 17.5054 25.1235 17.3477C24.9106 17.19 24.7537 16.9681 24.6758 16.7146L22.9058 10.9246C22.8582 10.7691 22.8417 10.6057 22.8572 10.4438C22.8727 10.2819 22.9199 10.1246 22.9961 9.98097C23.0723 9.83732 23.176 9.71011 23.3013 9.60661C23.4266 9.50311 23.571 9.42534 23.7264 9.37775L47.9044 1.96499C48.218 1.86914 48.5569 1.90183 48.8465 2.05589C49.1361 2.20994 49.3528 2.47277 49.4491 2.78668L51.2192 8.57668C51.3148 8.89079 51.2822 9.23006 51.1283 9.52007C50.9745 9.81008 50.7121 10.0271 50.3987 10.1236L26.2206 17.5364C26.1035 17.5724 25.9817 17.5907 25.8592 17.5908Z" fill="#80939E"/>
<path d="M35.1315 6.1867C36.6494 6.1867 37.88 4.9544 37.88 3.43429C37.88 1.91418 36.6494 0.681885 35.1315 0.681885C33.6136 0.681885 32.3831 1.91418 32.3831 3.43429C32.3831 4.9544 33.6136 6.1867 35.1315 6.1867Z" fill="#80939E"/>
<path d="M35.1315 5.17723C36.0927 5.17723 36.8719 4.3969 36.8719 3.43432C36.8719 2.47173 36.0927 1.69141 35.1315 1.69141C34.1703 1.69141 33.3911 2.47173 33.3911 3.43432C33.3911 4.3969 34.1703 5.17723 35.1315 5.17723Z" fill="white"/>
<path d="M91.816 80.119H45.3671C45.0574 80.1187 44.7605 79.9953 44.5415 79.776C44.3225 79.5567 44.1993 79.2594 44.199 78.9492V23.213C44.1993 22.9028 44.3225 22.6055 44.5415 22.3862C44.7605 22.1669 45.0574 22.0436 45.3671 22.0432H91.816C92.1257 22.0436 92.4226 22.1669 92.6416 22.3862C92.8605 22.6055 92.9837 22.9029 92.9841 23.213V78.9492C92.9837 79.2594 92.8605 79.5567 92.6415 79.776C92.4226 79.9953 92.1257 80.1186 91.816 80.119Z" fill="#E6E6E6"/>
<path d="M70.4468 19.2908H41.5193C40.9 19.2916 40.3063 19.5384 39.8683 19.977C39.4304 20.4155 39.184 21.0101 39.1831 21.6303V77.7519L39.458 77.668V21.6303C39.4586 21.083 39.676 20.5584 40.0624 20.1714C40.4489 19.7844 40.9728 19.5667 41.5193 19.566H70.532L70.4468 19.2908ZM95.6639 19.2908H41.5193C40.9 19.2916 40.3063 19.5384 39.8683 19.977C39.4304 20.4155 39.184 21.0101 39.1831 21.6303V84.6605C39.184 85.2807 39.4304 85.8752 39.8683 86.3138C40.3063 86.7524 40.9 86.9991 41.5193 87H95.6639C96.2832 86.9991 96.8769 86.7524 97.3149 86.3138C97.7528 85.8752 97.9992 85.2807 98.0001 84.6605V21.6303C97.9992 21.0101 97.7528 20.4155 97.3149 19.977C96.8769 19.5384 96.2832 19.2916 95.6639 19.2908ZM97.7252 84.6605C97.7246 85.2077 97.5072 85.7324 97.1207 86.1194C96.7343 86.5064 96.2104 86.7241 95.6639 86.7248H41.5193C40.9728 86.7241 40.4489 86.5064 40.0624 86.1194C39.676 85.7324 39.4586 85.2077 39.458 84.6605V21.6303C39.4586 21.083 39.676 20.5584 40.0624 20.1714C40.4489 19.7844 40.9728 19.5667 41.5193 19.566H95.6639C96.2104 19.5667 96.7343 19.7844 97.1207 20.1714C97.5072 20.5584 97.7246 21.083 97.7252 21.6303V84.6605Z" fill="#3F3D56"/>
<path d="M81.2345 25.3461H55.9487C55.6208 25.3457 55.3064 25.2151 55.0746 24.9829C54.8427 24.7507 54.7123 24.4359 54.7119 24.1075V18.0522C54.7123 17.7238 54.8427 17.409 55.0746 17.1768C55.3064 16.9446 55.6208 16.814 55.9487 16.8136H81.2345C81.5624 16.814 81.8768 16.9446 82.1087 17.1768C82.3405 17.409 82.471 17.7238 82.4713 18.0522V24.1075C82.471 24.4359 82.3405 24.7507 82.1087 24.9829C81.8768 25.2151 81.5624 25.3457 81.2345 25.3461Z" fill="#80939E"/>
<path d="M68.5915 17.2265C70.1094 17.2265 71.3399 15.9942 71.3399 14.4741C71.3399 12.954 70.1094 11.7217 68.5915 11.7217C67.0735 11.7217 65.843 12.954 65.843 14.4741C65.843 15.9942 67.0735 17.2265 68.5915 17.2265Z" fill="#80939E"/>
<path d="M68.5915 16.1506C69.5161 16.1506 70.2656 15.4 70.2656 14.4741C70.2656 13.5482 69.5161 12.7976 68.5915 12.7976C67.667 12.7976 66.9175 13.5482 66.9175 14.4741C66.9175 15.4 67.667 16.1506 68.5915 16.1506Z" fill="white"/>
</g>
<path d="M1.49609 110V101.469H2.69727L6.62891 107.451C6.70703 107.568 6.78125 107.691 6.85156 107.82C6.92578 107.945 6.98633 108.057 7.0332 108.154H7.08594C7.07812 108.037 7.07227 107.896 7.06836 107.732C7.06445 107.564 7.0625 107.422 7.0625 107.305V101.469H8.18164V110H6.98047L3.03711 104.006C2.95898 103.889 2.88477 103.771 2.81445 103.654C2.74805 103.537 2.68945 103.43 2.63867 103.332H2.5918C2.5957 103.449 2.59961 103.582 2.60352 103.73C2.60742 103.875 2.60938 104.006 2.60938 104.123V110H1.49609ZM9.68164 106.977V106.789C9.68164 105.848 9.95312 105.08 10.4961 104.486C11.0391 103.889 11.7637 103.59 12.6699 103.59C13.5762 103.59 14.3008 103.889 14.8438 104.486C15.3867 105.08 15.6582 105.848 15.6582 106.789V106.977C15.6582 107.918 15.3867 108.688 14.8438 109.285C14.3008 109.879 13.5762 110.176 12.6699 110.176C11.7637 110.176 11.0391 109.879 10.4961 109.285C9.95312 108.688 9.68164 107.918 9.68164 106.977ZM10.8184 106.789V106.977C10.8184 107.613 10.9727 108.152 11.2812 108.594C11.5938 109.035 12.0566 109.256 12.6699 109.256C13.2832 109.256 13.7441 109.035 14.0527 108.594C14.3613 108.152 14.5156 107.613 14.5156 106.977V106.789C14.5156 106.148 14.3613 105.607 14.0527 105.166C13.7441 104.725 13.2832 104.504 12.6699 104.504C12.0566 104.504 11.5938 104.725 11.2812 105.166C10.9727 105.607 10.8184 106.148 10.8184 106.789ZM16.1562 104.621V103.766H19.7656V104.621H16.1562ZM17.2871 108.453V104.281V104.105V102.312H18.4004V108.453C18.4004 108.727 18.4551 108.922 18.5645 109.039C18.6777 109.156 18.8555 109.215 19.0977 109.215C19.207 109.215 19.3145 109.203 19.4199 109.18C19.5293 109.156 19.6406 109.125 19.7539 109.086V110C19.6484 110.047 19.5117 110.088 19.3438 110.123C19.1797 110.158 18.998 110.176 18.7988 110.176C18.3379 110.176 17.9707 110.037 17.6973 109.76C17.4238 109.482 17.2871 109.047 17.2871 108.453ZM20.9258 110V101H22.0391V104.545C22.2656 104.271 22.5488 104.055 22.8887 103.895C23.2285 103.73 23.6035 103.648 24.0137 103.648C24.6191 103.648 25.1113 103.83 25.4902 104.193C25.873 104.553 26.0645 105.158 26.0645 106.01V110H24.9453V105.998C24.9453 105.494 24.8301 105.133 24.5996 104.914C24.373 104.695 24.0508 104.586 23.6328 104.586C23.2734 104.586 22.957 104.682 22.6836 104.873C22.4102 105.064 22.1953 105.311 22.0391 105.611V110H20.9258ZM27.7988 110V103.766H28.9121V110H27.7988ZM27.6699 101.914C27.6699 101.73 27.7285 101.576 27.8457 101.451C27.9668 101.322 28.1367 101.258 28.3555 101.258C28.5742 101.258 28.7422 101.322 28.8594 101.451C28.9805 101.576 29.041 101.73 29.041 101.914C29.041 102.102 28.9805 102.26 28.8594 102.389C28.7422 102.514 28.5742 102.576 28.3555 102.576C28.1367 102.576 27.9668 102.514 27.8457 102.389C27.7285 102.26 27.6699 102.102 27.6699 101.914ZM30.6992 110V103.766H31.707L31.7539 104.574H31.7891C32.0195 104.281 32.3008 104.055 32.6328 103.895C32.9648 103.73 33.334 103.648 33.7402 103.648C34.377 103.648 34.8848 103.83 35.2637 104.193C35.6465 104.553 35.8379 105.158 35.8379 106.01V110H34.7188V105.998C34.7188 105.494 34.6035 105.133 34.373 104.914C34.1465 104.695 33.8242 104.586 33.4062 104.586C33.0469 104.586 32.7305 104.682 32.457 104.873C32.1836 105.064 31.9688 105.311 31.8125 105.611V110H30.6992ZM37.3906 111.664L38.0703 110.82C38.25 111.02 38.502 111.195 38.8262 111.348C39.1504 111.504 39.5156 111.582 39.9219 111.582C40.4648 111.582 40.8926 111.432 41.2051 111.131C41.5215 110.83 41.6797 110.408 41.6797 109.865V109.262C41.4961 109.52 41.2461 109.727 40.9297 109.883C40.6172 110.039 40.2402 110.117 39.7988 110.117C38.9941 110.117 38.3516 109.82 37.8711 109.227C37.3906 108.633 37.1504 107.883 37.1504 106.977V106.789C37.1504 105.879 37.3906 105.129 37.8711 104.539C38.3516 103.945 38.9941 103.648 39.7988 103.648C40.2402 103.648 40.627 103.74 40.959 103.924C41.2949 104.104 41.543 104.32 41.7031 104.574H41.7383L41.7852 103.766H42.793V109.865C42.793 110.729 42.5293 111.393 42.002 111.857C41.4785 112.322 40.7949 112.555 39.9512 112.555C39.4316 112.555 38.9512 112.471 38.5098 112.303C38.0684 112.135 37.6953 111.922 37.3906 111.664ZM38.2871 106.977C38.2871 107.602 38.4277 108.129 38.709 108.559C38.9941 108.984 39.4375 109.197 40.0391 109.197C40.4453 109.197 40.7891 109.09 41.0703 108.875C41.3516 108.656 41.5547 108.41 41.6797 108.137V105.629C41.5547 105.352 41.3516 105.105 41.0703 104.891C40.7891 104.672 40.4453 104.562 40.0391 104.562C39.4375 104.562 38.9941 104.777 38.709 105.207C38.4277 105.633 38.2871 106.16 38.2871 106.789V106.977ZM46.5898 104.621V103.766H50.1992V104.621H46.5898ZM47.7207 108.453V104.281V104.105V102.312H48.834V108.453C48.834 108.727 48.8887 108.922 48.998 109.039C49.1113 109.156 49.2891 109.215 49.5312 109.215C49.6406 109.215 49.748 109.203 49.8535 109.18C49.9629 109.156 50.0742 109.125 50.1875 109.086V110C50.082 110.047 49.9453 110.088 49.7773 110.123C49.6133 110.158 49.4316 110.176 49.2324 110.176C48.7715 110.176 48.4043 110.037 48.1309 109.76C47.8574 109.482 47.7207 109.047 47.7207 108.453ZM50.873 106.977V106.789C50.873 105.848 51.1445 105.08 51.6875 104.486C52.2305 103.889 52.9551 103.59 53.8613 103.59C54.7676 103.59 55.4922 103.889 56.0352 104.486C56.5781 105.08 56.8496 105.848 56.8496 106.789V106.977C56.8496 107.918 56.5781 108.688 56.0352 109.285C55.4922 109.879 54.7676 110.176 53.8613 110.176C52.9551 110.176 52.2305 109.879 51.6875 109.285C51.1445 108.688 50.873 107.918 50.873 106.977ZM52.0098 106.789V106.977C52.0098 107.613 52.1641 108.152 52.4727 108.594C52.7852 109.035 53.248 109.256 53.8613 109.256C54.4746 109.256 54.9355 109.035 55.2441 108.594C55.5527 108.152 55.707 107.613 55.707 106.977V106.789C55.707 106.148 55.5527 105.607 55.2441 105.166C54.9355 104.725 54.4746 104.504 53.8613 104.504C53.248 104.504 52.7852 104.725 52.4727 105.166C52.1641 105.607 52.0098 106.148 52.0098 106.789ZM60.7461 108.166H61.8594V108.195C61.8594 108.551 61.9941 108.82 62.2637 109.004C62.5371 109.184 62.8945 109.273 63.3359 109.273C63.7812 109.273 64.1309 109.188 64.3848 109.016C64.6387 108.84 64.7656 108.615 64.7656 108.342C64.7656 108.064 64.6641 107.852 64.4609 107.703C64.2578 107.555 63.8125 107.404 63.125 107.252C62.4336 107.1 61.8926 106.879 61.502 106.59C61.1152 106.297 60.9219 105.893 60.9219 105.377C60.9219 104.865 61.1367 104.439 61.5664 104.1C61.9961 103.76 62.5742 103.59 63.3008 103.59C64.0273 103.59 64.6094 103.762 65.0469 104.105C65.4883 104.445 65.709 104.902 65.709 105.477V105.506H64.6016V105.459C64.6016 105.158 64.4961 104.922 64.2852 104.75C64.0742 104.578 63.7461 104.492 63.3008 104.492C62.8555 104.492 62.5312 104.572 62.3281 104.732C62.125 104.889 62.0234 105.084 62.0234 105.318C62.0234 105.557 62.1348 105.746 62.3574 105.887C62.584 106.023 63.041 106.168 63.7285 106.32C64.4199 106.473 64.9492 106.699 65.3164 107C65.6875 107.301 65.873 107.727 65.873 108.277C65.873 108.832 65.6602 109.287 65.2344 109.643C64.8125 109.998 64.1797 110.176 63.3359 110.176C62.4922 110.176 61.8496 109.996 61.4082 109.637C60.9668 109.273 60.7461 108.793 60.7461 108.195V108.166ZM66.8457 106.977V106.789C66.8457 105.848 67.1074 105.08 67.6309 104.486C68.1543 103.889 68.8477 103.59 69.7109 103.59C70.5742 103.59 71.2383 103.869 71.7031 104.428C72.1719 104.982 72.4062 105.734 72.4062 106.684V107.141H67.5312V106.256H71.2812V106.168C71.2812 105.699 71.1543 105.305 70.9004 104.984C70.6465 104.664 70.2598 104.504 69.7402 104.504C69.1582 104.504 68.7188 104.725 68.4219 105.166C68.1289 105.607 67.9824 106.148 67.9824 106.789V106.977C67.9824 107.617 68.1367 108.158 68.4453 108.6C68.7578 109.041 69.2402 109.262 69.8926 109.262C70.2949 109.262 70.6406 109.176 70.9297 109.004C71.2188 108.832 71.4531 108.629 71.6328 108.395L72.3535 108.975C72.1543 109.268 71.8438 109.541 71.4219 109.795C71.0039 110.049 70.4941 110.176 69.8926 110.176C68.9082 110.176 68.1543 109.879 67.6309 109.285C67.1074 108.688 66.8457 107.918 66.8457 106.977ZM73.373 106.977V106.789C73.373 105.848 73.6348 105.08 74.1582 104.486C74.6816 103.889 75.375 103.59 76.2383 103.59C77.1016 103.59 77.7656 103.869 78.2305 104.428C78.6992 104.982 78.9336 105.734 78.9336 106.684V107.141H74.0586V106.256H77.8086V106.168C77.8086 105.699 77.6816 105.305 77.4277 104.984C77.1738 104.664 76.7871 104.504 76.2676 104.504C75.6855 104.504 75.2461 104.725 74.9492 105.166C74.6562 105.607 74.5098 106.148 74.5098 106.789V106.977C74.5098 107.617 74.6641 108.158 74.9727 108.6C75.2852 109.041 75.7676 109.262 76.4199 109.262C76.8223 109.262 77.168 109.176 77.457 109.004C77.7461 108.832 77.9805 108.629 78.1602 108.395L78.8809 108.975C78.6816 109.268 78.3711 109.541 77.9492 109.795C77.5312 110.049 77.0215 110.176 76.4199 110.176C75.4355 110.176 74.6816 109.879 74.1582 109.285C73.6348 108.688 73.373 107.918 73.373 106.977ZM83.1992 110V101H84.3125V104.545C84.5391 104.271 84.8223 104.055 85.1621 103.895C85.502 103.73 85.877 103.648 86.2871 103.648C86.8926 103.648 87.3848 103.83 87.7637 104.193C88.1465 104.553 88.3379 105.158 88.3379 106.01V110H87.2188V105.998C87.2188 105.494 87.1035 105.133 86.873 104.914C86.6465 104.695 86.3242 104.586 85.9062 104.586C85.5469 104.586 85.2305 104.682 84.957 104.873C84.6836 105.064 84.4688 105.311 84.3125 105.611V110H83.1992ZM89.6504 106.977V106.789C89.6504 105.848 89.9121 105.08 90.4355 104.486C90.959 103.889 91.6523 103.59 92.5156 103.59C93.3789 103.59 94.043 103.869 94.5078 104.428C94.9766 104.982 95.2109 105.734 95.2109 106.684V107.141H90.3359V106.256H94.0859V106.168C94.0859 105.699 93.959 105.305 93.7051 104.984C93.4512 104.664 93.0645 104.504 92.5449 104.504C91.9629 104.504 91.5234 104.725 91.2266 105.166C90.9336 105.607 90.7871 106.148 90.7871 106.789V106.977C90.7871 107.617 90.9414 108.158 91.25 108.6C91.5625 109.041 92.0449 109.262 92.6973 109.262C93.0996 109.262 93.4453 109.176 93.7344 109.004C94.0234 108.832 94.2578 108.629 94.4375 108.395L95.1582 108.975C94.959 109.268 94.6484 109.541 94.2266 109.795C93.8086 110.049 93.2988 110.176 92.6973 110.176C91.7129 110.176 90.959 109.879 90.4355 109.285C89.9121 108.688 89.6504 107.918 89.6504 106.977ZM96.5469 110V103.766H97.5547L97.6016 104.568H97.6367C97.7969 104.307 98.0078 104.078 98.2695 103.883C98.5352 103.688 98.8496 103.59 99.2129 103.59C99.2988 103.59 99.3887 103.6 99.4824 103.619C99.5801 103.639 99.6484 103.656 99.6875 103.672V104.709C99.6094 104.693 99.5254 104.682 99.4355 104.674C99.3496 104.666 99.2539 104.662 99.1484 104.662C98.7852 104.662 98.4766 104.756 98.2227 104.943C97.9688 105.131 97.7812 105.361 97.6602 105.635V110H96.5469ZM100.244 106.977V106.789C100.244 105.848 100.506 105.08 101.029 104.486C101.553 103.889 102.246 103.59 103.109 103.59C103.973 103.59 104.637 103.869 105.102 104.428C105.57 104.982 105.805 105.734 105.805 106.684V107.141H100.93V106.256H104.68V106.168C104.68 105.699 104.553 105.305 104.299 104.984C104.045 104.664 103.658 104.504 103.139 104.504C102.557 104.504 102.117 104.725 101.82 105.166C101.527 105.607 101.381 106.148 101.381 106.789V106.977C101.381 107.617 101.535 108.158 101.844 108.6C102.156 109.041 102.639 109.262 103.291 109.262C103.693 109.262 104.039 109.176 104.328 109.004C104.617 108.832 104.852 108.629 105.031 108.395L105.752 108.975C105.553 109.268 105.242 109.541 104.82 109.795C104.402 110.049 103.893 110.176 103.291 110.176C102.307 110.176 101.553 109.879 101.029 109.285C100.506 108.688 100.244 107.918 100.244 106.977Z" fill="#787878"/>
<defs>
<clipPath id="clip0_743_1582">
<rect width="89" height="87" fill="white" transform="translate(9)"/>
</clipPath>
</defs>
</svg>
