<svg width="24" height="25" viewBox="0 0 24 25" fill="none" xmlns="http://www.w3.org/2000/svg">
<path d="M15.2494 13.668C15.3791 13.668 15.8658 13.8876 16.7093 14.3268C17.5529 14.7661 17.9996 15.0306 18.0495 15.1205C18.0695 15.1704 18.0795 15.2453 18.0795 15.3451C18.0795 15.6745 17.9946 16.0538 17.8249 16.4831C17.6652 16.8724 17.3108 17.1994 16.7617 17.4639C16.2127 17.7284 15.7036 17.8607 15.2344 17.8607C14.6654 17.8607 13.717 17.5512 12.3893 16.9323C11.411 16.4831 10.5625 15.8941 9.84377 15.1654C9.12501 14.4367 8.3863 13.5133 7.62762 12.3952C6.90886 11.3271 6.55448 10.3587 6.56446 9.49025V9.37046C6.59441 8.46204 6.96377 7.67341 7.67254 7.00457C7.91212 6.78495 8.17167 6.67514 8.45119 6.67514C8.51108 6.67514 8.60092 6.68263 8.72072 6.6976C8.84051 6.71257 8.93534 6.72006 9.00522 6.72006C9.19489 6.72006 9.32716 6.75251 9.40203 6.81739C9.4769 6.88228 9.55427 7.01954 9.63413 7.22918C9.71399 7.42883 9.87871 7.86807 10.1283 8.54689C10.3778 9.22571 10.5026 9.60006 10.5026 9.66994C10.5026 9.87957 10.3304 10.1666 9.98602 10.5309C9.64162 10.8953 9.46942 11.1274 9.46942 11.2272C9.46942 11.2971 9.49437 11.372 9.54429 11.4518C9.8837 12.1806 10.3928 12.8644 11.0716 13.5033C11.6307 14.0324 12.3844 14.5365 13.3327 15.0156C13.4525 15.0855 13.5623 15.1205 13.6621 15.1205C13.8119 15.1205 14.0814 14.8784 14.4707 14.3942C14.8601 13.9101 15.1196 13.668 15.2494 13.668ZM12.2097 21.6042C13.4775 21.6042 14.6928 21.3546 15.8558 20.8555C17.0188 20.3564 18.0196 19.6875 18.8581 18.849C19.6966 18.0104 20.3655 17.0097 20.8646 15.8467C21.3638 14.6837 21.6133 13.4683 21.6133 12.2005C21.6133 10.9327 21.3638 9.71735 20.8646 8.55438C20.3655 7.3914 19.6966 6.39063 18.8581 5.55209C18.0196 4.71355 17.0188 4.04471 15.8558 3.54558C14.6928 3.04644 13.4775 2.79688 12.2097 2.79688C10.9419 2.79688 9.72647 3.04644 8.56349 3.54558C7.40051 4.04471 6.39975 4.71355 5.56121 5.55209C4.72266 6.39063 4.05383 7.3914 3.55469 8.55438C3.05556 9.71735 2.80599 10.9327 2.80599 12.2005C2.80599 14.227 3.40495 16.0638 4.60287 17.711L3.41993 21.1999L7.04363 20.0469C8.62089 21.0851 10.3429 21.6042 12.2097 21.6042ZM12.2097 0.910156C13.737 0.910156 15.197 1.20964 16.5895 1.8086C17.9821 2.40755 19.1825 3.21116 20.1908 4.21941C21.199 5.22765 22.0026 6.42807 22.6016 7.82065C23.2006 9.21323 23.5 10.6732 23.5 12.2005C23.5 13.7279 23.2006 15.1878 22.6016 16.5804C22.0026 17.973 21.199 19.1734 20.1908 20.1817C19.1825 21.1899 17.9821 21.9935 16.5895 22.5925C15.197 23.1914 13.737 23.4909 12.2097 23.4909C10.263 23.4909 8.4412 23.0217 6.74415 22.0834L0.5 24.0899L2.53646 18.0254C1.45833 16.2485 0.919272 14.3069 0.919272 12.2005C0.919272 10.6732 1.21875 9.21323 1.81771 7.82065C2.41667 6.42807 3.22027 5.22765 4.22852 4.21941C5.23677 3.21116 6.43718 2.40755 7.82976 1.8086C9.22235 1.20964 10.6823 0.910156 12.2097 0.910156Z" fill="black"/>
</svg>
